# xmcd
#
# Track frame offsets:
#	150
#	18492
#	34475
#	51870
#	64870
#	81442
#	94777
#	108037
#	121945
#	139905
#	155362
#	173707
#	189690
#	207085
#	220084
#	236657
#	249995
#	263255
#	277162
#	295122
#
# Disc length: 4140 seconds
#
# Revision: 2
# Processed by: cddbd v1.5.2PL0 Copyright (c) Steve Scherf et al.
# Submitted via: audiograbber 1.83.01
#
DISCID=1f102a14
DTITLE=Various Artist - THMC0008
DYEAR=2000
DGENRE=Karaoke
TTITLE0=Urban, Keith - Your Everything (Vocals)
TTITLE1=Alabama - We Made Love (Vocals)
TTITLE2=Cochran, Tammy - If You Can (Vocals)
TTITLE3=Jackson, Alan - It Must Be Love (Vocals)
TTITLE4=Wills, Mark - Almost Doesn't Count (Vocals)
TTITLE5=Elliott, Alecia - You Wanna What (Vocals)
TTITLE6=Blackhawk - I Need You All The Time (Vocals)
TTITLE7=Adkins, Trace - More (Vocals)
TTITLE8=McGraw, Tim - Some Things Never Change (Vocals)
TTITLE9=Rimes, LeAnn - I Need You (Vocals)
TTITLE10=Urban, Keith - Your Everything
TTITLE11=Alabama - We Made Love
TTITLE12=Cochran, Tammy - If You Can
TTITLE13=Jackson, Alan - It Must Be Love
TTITLE14=Wills, Mark - Almost Doesn't Count
TTITLE15=Elliott, Alecia - You Wanna What
TTITLE16=Blackhawk - I Need You All The Time
TTITLE17=Adkins, Trace - More
TTITLE18=McGraw, Tim - Some Things Never Change
TTITLE19=Rimes, LeAnn - I Need You
EXTD=
EXTT0=
EXTT1=
EXTT2=
EXTT3=
EXTT4=
EXTT5=
EXTT6=
EXTT7=
EXTT8=
EXTT9=
EXTT10=
EXTT11=
EXTT12=
EXTT13=
EXTT14=
EXTT15=
EXTT16=
EXTT17=
EXTT18=
EXTT19=
PLAYORDER=
